<?xml version="1.0" encoding="iso-8859-1"?>
<!-- Uploaded to: SVG Repo, www.svgrepo.com, Generator: SVG Repo Mixer Tools -->
<svg height="800px" width="800px" version="1.1" id="Capa_1" xmlns="http://www.w3.org/2000/svg" xmlns:xlink="http://www.w3.org/1999/xlink" 
	 viewBox="0 0 230.005 230.005" xml:space="preserve">
<g>
	<g>
		<polygon style="fill:#030104;" points="206.383,163.897 206.383,163.897 206.384,163.897 		"/>
		<path style="fill:#030104;" d="M206.383,163.897c-4.494,0-9.601,0.618-15.312,1.844l-49.622-49.324l51.152-51.149
			c3.678,0.825,7.654,1.231,11.942,1.231c18.79,0,27.152-7.451,25.114-22.358c-4.084-11.018-10.102-16.534-18.072-16.534
			c-3.474,0-7.352,0.822-11.633,2.448c1.422-4.286,2.141-8.159,2.141-11.642c0-4.892-1.535-9.026-4.596-12.4
			c-3.062-3.375-6.944-5.359-11.641-5.978c-14.904-0.607-22.354,7.356-22.354,23.896c0,4.294,0.612,9.098,1.837,14.386
			l-50.232,51.455L64.261,38.934c1.231-5.711,1.839-10.807,1.839-15.31c0-16.343-7.352-24.198-22.053-23.591
			C33.229,4.325,27.818,10.452,27.818,18.411c0,3.483,0.803,7.356,2.447,11.642c-4.492-1.626-8.474-2.448-11.943-2.448
			c-4.701,0-8.732,1.587-12.094,4.746c-3.375,3.17-5.368,7.095-5.975,11.789C-1.586,59.048,6.777,66.498,25.37,66.498
			c4.284,0,8.264-0.406,11.935-1.231l51.156,51.149L38.839,165.74c-5.712-1.226-10.819-1.844-15.312-1.844
			c-16.128,0-23.891,7.35-23.275,22.053c4.075,10.826,10.102,16.235,18.07,16.235c3.469,0,7.35-0.81,11.633-2.456
			c-1.432,4.503-2.137,8.472-2.137,11.955c0,4.694,1.517,8.726,4.553,12.1c3.042,3.357,6.882,5.354,11.549,5.979
			c14.784,1.819,22.18-6.545,22.18-25.121c0-4.293-0.303-8.285-0.916-11.954l49.921-49.918l49.618,49.918
			c-0.814,3.669-1.222,7.661-1.222,11.954c0,18.576,7.45,26.94,22.354,25.121c11.027-4.103,16.541-10.124,16.541-18.078
			c0-3.483-0.812-7.452-2.445-11.955c4.281,1.646,8.158,2.457,11.633,2.457c4.902,0,9.039-1.525,12.41-4.607
			c3.365-3.061,5.355-6.934,5.975-11.629C230.579,171.246,222.71,163.897,206.383,163.897z"/>
	</g>
</g>
</svg>