<?xml version="1.0" encoding="UTF-8"?>
<svg xmlns="http://www.w3.org/2000/svg" xmlns:xlink="http://www.w3.org/1999/xlink" width="2501" height="2501" viewBox="0 0 2501 2501">
<path fill-rule="evenodd" fill="rgb(54.492188%, 67.771912%, 13.719177%)" fill-opacity="1" d="M 1037.769531 1086.71875 C 1011.910156 1039.371094 952.027344 1021.789062 904.6875 1047.648438 C 692.214844 1194.511719 623.761719 1339.421875 628.445312 1435.960938 C 635.820312 1587.851562 813.5625 1602.460938 862.527344 1417.738281 C 882.855469 1341.070312 906.648438 1233 1037.769531 1086.71875 "/>
<path fill-rule="evenodd" fill="rgb(60.351562%, 75.78125%, 16.479492%)" fill-opacity="1" d="M 708.535156 1227.449219 C 647.773438 1307.230469 625.71875 1379.789062 628.445312 1435.960938 C 632.035156 1509.898438 675.996094 1551.289062 725.820312 1553.011719 C 749.300781 1512.074219 763.375 1459.960938 763.375 1403.199219 C 763.375 1333.628906 742.238281 1271.019531 708.535156 1227.449219 "/>
<path fill-rule="evenodd" fill="rgb(54.492188%, 67.771912%, 13.719177%)" fill-opacity="1" d="M 1463.910156 1086.71875 C 1489.769531 1039.371094 1549.648438 1021.789062 1596.988281 1047.648438 C 1809.46875 1194.511719 1877.921875 1339.421875 1873.230469 1435.960938 C 1865.859375 1587.851562 1688.121094 1602.460938 1639.148438 1417.738281 C 1618.828125 1341.070312 1595.03125 1233 1463.910156 1086.71875 "/>
<path fill-rule="evenodd" fill="rgb(60.351562%, 75.78125%, 16.479492%)" fill-opacity="1" d="M 1793.140625 1227.449219 C 1853.910156 1307.230469 1875.960938 1379.789062 1873.230469 1435.960938 C 1869.640625 1509.898438 1825.679688 1551.289062 1775.859375 1553.011719 C 1752.378906 1512.074219 1738.300781 1459.960938 1738.300781 1403.199219 C 1738.300781 1333.628906 1759.441406 1271.019531 1793.140625 1227.449219 "/>
<path fill-rule="evenodd" fill="rgb(54.492188%, 67.771912%, 13.719177%)" fill-opacity="1" d="M 1289.929688 1770.589844 C 1279.390625 1740.152344 1268.378906 1702.699219 1251.550781 1668.148438 C 1234.71875 1702.699219 1223.699219 1740.152344 1213.160156 1770.589844 C 1039.070312 2273.386719 385.40625 625.820312 1252.21875 625.820312 C 2107.761719 625.820312 1473.71875 2301.386719 1289.929688 1770.589844 "/>
<path fill-rule="evenodd" fill="rgb(60.351562%, 75.78125%, 16.479492%)" fill-opacity="1" d="M 1289.929688 1770.589844 C 1279.390625 1740.152344 1268.378906 1702.699219 1251.550781 1668.148438 C 1234.71875 1702.699219 1223.699219 1740.152344 1213.160156 1770.589844 C 1127.929688 2016.730469 829.101562 1497.421875 823.320312 1081.238281 C 812.023438 268.289062 2129.691406 716.199219 1425.441406 1863.292969 C 1373.070312 1891.171875 1323.839844 1868.507812 1289.929688 1770.589844 "/>
<path fill-rule="evenodd" fill="rgb(100%, 100%, 100%)" fill-opacity="1" d="M 1084.71875 784.429688 C 998.507812 784.429688 928.617188 854.320312 928.617188 940.53125 C 928.617188 1026.738281 998.507812 1096.628906 1084.71875 1096.628906 C 1170.929688 1096.628906 1240.820312 1026.738281 1240.820312 940.53125 C 1240.820312 854.320312 1170.929688 784.429688 1084.71875 784.429688 "/>
<path fill-rule="evenodd" fill="rgb(40.771484%, 13.330078%, 76.5625%)" fill-opacity="1" d="M 1084.71875 848.878906 C 1034.128906 848.878906 993.125 889.890625 993.125 940.480469 C 993.125 991.070312 1034.128906 1032.070312 1084.71875 1032.070312 C 1135.308594 1032.070312 1176.308594 991.070312 1176.308594 940.480469 C 1176.308594 889.890625 1135.308594 848.878906 1084.71875 848.878906 "/>
<path fill-rule="evenodd" fill="rgb(7.446289%, 16.868591%, 18.431091%)" fill-opacity="1" d="M 1082.738281 889.308594 C 1053.390625 889.308594 1029.589844 913.101562 1029.589844 942.460938 C 1029.589844 971.808594 1053.390625 995.609375 1082.738281 995.609375 C 1112.101562 995.609375 1135.890625 971.808594 1135.890625 942.460938 C 1135.890625 913.101562 1112.101562 889.308594 1082.738281 889.308594 "/>
<path fill-rule="evenodd" fill="rgb(100%, 100%, 100%)" fill-opacity="1" d="M 997.5 890.488281 C 1003.230469 872.921875 1022.308594 854.671875 1040.121094 849.71875 C 1057.929688 844.78125 1067.71875 855.019531 1061.988281 872.589844 C 1056.261719 890.160156 1037.179688 908.410156 1019.371094 913.359375 C 1001.558594 918.300781 991.769531 908.070312 997.5 890.488281 "/>
<path fill-rule="evenodd" fill="rgb(100%, 100%, 100%)" fill-opacity="1" d="M 1106.378906 987.171875 C 1101.75 982.539062 1101.75 975.03125 1106.378906 970.398438 C 1111.011719 965.769531 1118.519531 965.769531 1123.148438 970.398438 C 1127.78125 975.03125 1127.78125 982.539062 1123.148438 987.171875 C 1118.519531 991.800781 1111.011719 991.800781 1106.378906 987.171875 "/>
<path fill-rule="evenodd" fill="rgb(100%, 100%, 100%)" fill-opacity="1" d="M 1416.960938 784.429688 C 1330.75 784.429688 1260.859375 854.320312 1260.859375 940.53125 C 1260.859375 1026.738281 1330.75 1096.628906 1416.960938 1096.628906 C 1503.171875 1096.628906 1573.058594 1026.738281 1573.058594 940.53125 C 1573.058594 854.320312 1503.171875 784.429688 1416.960938 784.429688 "/>
<path fill-rule="evenodd" fill="rgb(40.771484%, 13.330078%, 76.5625%)" fill-opacity="1" d="M 1416.960938 848.878906 C 1366.371094 848.878906 1325.359375 889.890625 1325.359375 940.480469 C 1325.359375 991.070312 1366.371094 1032.070312 1416.960938 1032.070312 C 1467.550781 1032.070312 1508.550781 991.070312 1508.550781 940.480469 C 1508.550781 889.890625 1467.550781 848.878906 1416.960938 848.878906 "/>
<path fill-rule="evenodd" fill="rgb(7.446289%, 16.868591%, 18.431091%)" fill-opacity="1" d="M 1414.980469 889.308594 C 1385.628906 889.308594 1361.828125 913.101562 1361.828125 942.460938 C 1361.828125 971.808594 1385.628906 995.609375 1414.980469 995.609375 C 1444.339844 995.609375 1468.128906 971.808594 1468.128906 942.460938 C 1468.128906 913.101562 1444.339844 889.308594 1414.980469 889.308594 "/>
<path fill-rule="evenodd" fill="rgb(100%, 100%, 100%)" fill-opacity="1" d="M 1329.738281 890.488281 C 1335.46875 872.921875 1354.550781 854.671875 1372.359375 849.71875 C 1390.171875 844.78125 1399.960938 855.019531 1394.230469 872.589844 C 1388.5 890.160156 1369.421875 908.410156 1351.609375 913.359375 C 1333.800781 918.300781 1324.011719 908.070312 1329.738281 890.488281 "/>
<path fill-rule="evenodd" fill="rgb(100%, 100%, 100%)" fill-opacity="1" d="M 1438.621094 987.171875 C 1433.980469 982.539062 1433.980469 975.03125 1438.621094 970.398438 C 1443.25 965.769531 1450.761719 965.769531 1455.390625 970.398438 C 1460.019531 975.03125 1460.019531 982.539062 1455.390625 987.171875 C 1450.761719 991.800781 1443.25 991.800781 1438.621094 987.171875 "/>
<path fill-rule="evenodd" fill="rgb(54.492188%, 67.771912%, 13.719177%)" fill-opacity="1" d="M 1542.769531 1355.171875 C 1500.589844 1506.023438 1386.109375 1614.195312 1251.5 1614.195312 C 1116.898438 1614.195312 1002.421875 1506.023438 960.238281 1355.171875 C 951.734375 1324.738281 955.195312 1293.820312 970.050781 1267.519531 C 984.90625 1241.210938 1007.011719 1226.878906 1032.699219 1226.878906 L 1470.308594 1226.878906 C 1496 1226.878906 1518.101562 1241.210938 1532.960938 1267.519531 C 1547.820312 1293.820312 1551.28125 1324.738281 1542.769531 1355.171875 "/>
<path fill-rule="evenodd" fill="rgb(4.307556%, 14.109802%, 21.946716%)" fill-opacity="1" d="M 1508.738281 1340.179688 C 1513.359375 1323.671875 1511.601562 1307.960938 1503.539062 1293.691406 C 1495.449219 1279.359375 1484.308594 1272.128906 1470.308594 1272.128906 L 1032.699219 1272.128906 C 1018.699219 1272.128906 1007.558594 1279.359375 999.464844 1293.691406 C 991.410156 1307.960938 989.648438 1323.671875 994.265625 1340.179688 C 1032.519531 1477.019531 1135.671875 1568.9375 1251.5 1568.9375 C 1367.339844 1568.9375 1470.488281 1477.019531 1508.738281 1340.179688 "/>
<path fill-rule="evenodd" fill="rgb(100%, 24.31488%, 24.705505%)" fill-opacity="1" d="M 1066.691406 1478.320312 C 1115.929688 1535.253906 1181.390625 1568.9375 1251.5 1568.9375 C 1321.621094 1568.9375 1387.078125 1535.253906 1436.320312 1478.320312 C 1387.078125 1421.378906 1321.621094 1387.699219 1251.5 1387.699219 C 1181.390625 1387.699219 1115.929688 1421.378906 1066.691406 1478.320312 "/>
<path fill-rule="evenodd" fill="rgb(100%, 34.130859%, 34.130859%)" fill-opacity="1" d="M 1355.578125 1413.621094 C 1323.238281 1396.828125 1288 1387.699219 1251.5 1387.699219 C 1215.011719 1387.699219 1179.769531 1396.828125 1147.429688 1413.621094 C 1176.28125 1461.261719 1212.71875 1488.988281 1251.5 1488.988281 C 1290.28125 1488.988281 1326.730469 1461.261719 1355.578125 1413.621094 "/>
<path fill-rule="evenodd" fill="rgb(100%, 100%, 100%)" fill-opacity="1" d="M 1030.078125 1272.128906 L 1119.539062 1272.128906 C 1118.058594 1296.199219 1113.289062 1335.160156 1074.808594 1361.589844 C 1036.320312 1335.160156 1031.558594 1296.199219 1030.078125 1272.128906 "/>
<path fill-rule="evenodd" fill="rgb(100%, 100%, 100%)" fill-opacity="1" d="M 1265.671875 1272.128906 L 1355.128906 1272.128906 C 1353.648438 1296.199219 1348.890625 1335.160156 1310.398438 1361.589844 C 1271.921875 1335.160156 1267.160156 1296.199219 1265.671875 1272.128906 "/>
<path fill-rule="evenodd" fill="rgb(100%, 100%, 100%)" fill-opacity="1" d="M 1147.878906 1272.128906 L 1237.339844 1272.128906 C 1235.851562 1296.199219 1231.089844 1335.160156 1192.609375 1361.589844 C 1154.121094 1335.160156 1149.359375 1296.199219 1147.878906 1272.128906 "/>
<path fill-rule="evenodd" fill="rgb(100%, 100%, 100%)" fill-opacity="1" d="M 1383.46875 1272.128906 L 1472.929688 1272.128906 C 1471.449219 1296.199219 1466.691406 1335.160156 1428.199219 1361.589844 C 1389.710938 1335.160156 1384.949219 1296.199219 1383.46875 1272.128906 "/>
</svg>
