<?xml version="1.0" encoding="iso-8859-1"?>
<!-- Uploaded to: SVG Repo, www.svgrepo.com, Generator: SVG Repo Mixer Tools -->
<!DOCTYPE svg PUBLIC "-//W3C//DTD SVG 1.1//EN" "http://www.w3.org/Graphics/SVG/1.1/DTD/svg11.dtd">
<svg height="800px" width="800px" version="1.1" id="Capa_1" xmlns="http://www.w3.org/2000/svg" xmlns:xlink="http://www.w3.org/1999/xlink" 
	 viewBox="0 0 411.039 411.039" xml:space="preserve">
<path style="fill:#020202;" d="M341.176,103.938L282.3,45.059c-2.784-2.779-6.55-4.34-10.483-4.34h-74.525
	C196.117,18.068,177.321,0.002,154.385,0c-22.937,0-41.733,18.066-42.907,40.719H94.631c-16.053,0-29.111,13.061-29.111,29.113
	v312.094c0,16.055,13.059,29.113,29.111,29.113h221.777c16.053,0,29.111-13.059,29.111-29.113V114.422
	C345.52,110.488,343.959,106.717,341.176,103.938z M313.906,378.625H97.133V73.133h14.286v74.232
	c0,23.691,19.275,42.965,42.966,42.967c5.376,0,9.735-4.359,9.733-9.734c0.001-5.377-4.356-9.734-9.734-9.732
	c-12.955-0.002-23.495-10.543-23.496-23.496l-0.002-104.402c0.001-12.957,10.541-23.498,23.498-23.498
	c12.955,0,23.496,10.541,23.497,23.496l0,89.793c0,3.793-3.087,6.879-6.88,6.879c-3.794,0.002-6.882-3.086-6.881-6.881
	l-0.002-74.518c0-5.375-4.357-9.734-9.733-9.732c-5.376,0-9.734,4.357-9.735,9.734l0.001,74.516
	c0.001,14.531,11.821,26.35,26.35,26.352c14.528,0,26.35-11.822,26.351-26.352l-0.001-59.623h53.87v43.576
	c0,10.555,8.555,19.108,19.105,19.108h43.58V378.625z"/>
</svg>